<svg width="24" height="24" viewBox="0 0 24 24" fill="none" xmlns="http://www.w3.org/2000/svg">
<path d="M6.98778 23C6.43951 23 5.95288 22.8241 5.52788 22.4722C5.10288 22.1204 4.84273 21.6759 4.74745 21.1389L3.01758 10.9722C2.96086 10.6389 3.0414 10.3381 3.25919 10.07C3.47699 9.80185 3.76511 9.66741 4.12356 9.66667H21.876C22.2352 9.66667 22.5237 9.80111 22.7415 10.07C22.9593 10.3389 23.0395 10.6396 22.982 10.9722L21.2521 21.1389C21.1576 21.6759 20.8978 22.1204 20.4728 22.4722C20.0478 22.8241 19.5608 23 19.0118 23H6.98778ZM5.51313 11.8889L6.95942 20.7778H19.0402L20.4864 11.8889H5.51313ZM10.7311 16.3333H15.2685C15.5899 16.3333 15.8595 16.2267 16.0773 16.0133C16.2951 15.8 16.4036 15.5363 16.4028 15.2222C16.4021 14.9081 16.2932 14.6444 16.0761 14.4311C15.8591 14.2178 15.5899 14.1111 15.2685 14.1111H10.7311C10.4097 14.1111 10.1405 14.2178 9.92345 14.4311C9.70642 14.6444 9.59752 14.9081 9.59676 15.2222C9.59601 15.5363 9.7049 15.8004 9.92345 16.0144C10.142 16.2285 10.4112 16.3348 10.7311 16.3333ZM6.19374 8.55556C5.87234 8.55556 5.60312 8.44889 5.38608 8.23556C5.16905 8.02222 5.06015 7.75852 5.05939 7.44444C5.05864 7.13037 5.16753 6.86667 5.38608 6.65333C5.60463 6.44 5.87385 6.33333 6.19374 6.33333H19.8058C20.1272 6.33333 20.3968 6.44 20.6146 6.65333C20.8324 6.86667 20.9409 7.13037 20.9402 7.44444C20.9394 7.75852 20.8305 8.02259 20.6135 8.23667C20.3965 8.45074 20.1272 8.55704 19.8058 8.55556H6.19374ZM8.46242 5.22222C8.14102 5.22222 7.87181 5.11556 7.65477 4.90222C7.43773 4.68889 7.32883 4.42519 7.32808 4.11111C7.32732 3.79704 7.43622 3.53333 7.65477 3.32C7.87332 3.10667 8.14254 3 8.46242 3H17.5372C17.8586 3 18.1281 3.10667 18.3459 3.32C18.5637 3.53333 18.6723 3.79704 18.6715 4.11111C18.6707 4.42519 18.5618 4.68926 18.3448 4.90333C18.1278 5.11741 17.8586 5.2237 17.5372 5.22222H8.46242Z" fill="black" fill-opacity="0.2"/>
</svg>
